HIERARCHY
ROOT SimulationBone
{
	OFFSET 0.000000 0.000000 0.000000
	CHANNELS 6 Xposition Yposition Zposition Zrotation Yrotation Xrotation 
	JOINT Hips
	{
		OFFSET 0.000000 0.000000 0.000000
		CHANNELS 6 Xposition Yposition Zposition Zrotation Yrotation Xrotation 
		JOINT RightUpLeg
		{
			OFFSET 0.103457 1.857831 10.548505
			CHANNELS 3 Zrotation Yrotation Xrotation
			JOINT RightLeg
			{
				OFFSET 43.500000 -0.000038 -0.000004
				CHANNELS 3 Zrotation Yrotation Xrotation
				JOINT RightFoot
				{
					OFFSET 42.372208 0.000027 -0.000004
					CHANNELS 3 Zrotation Yrotation Xrotation
					JOINT RightToe
					{
						OFFSET 17.300005 0.000002 0.000002
						CHANNELS 3 Zrotation Yrotation Xrotation
						End Site
						{
							OFFSET 0.000000 0.000000 0.000000
						}
					}
				}
			}
		}
		JOINT LeftUpLeg
		{
			OFFSET 0.103462 1.857825 -10.548504
			CHANNELS 3 Zrotation Yrotation Xrotation
			JOINT LeftLeg
			{
				OFFSET 43.500042 -0.000027 0.000011
				CHANNELS 3 Zrotation Yrotation Xrotation
				JOINT LeftFoot
				{
					OFFSET 42.372265 -0.000015 0.000012
					CHANNELS 3 Zrotation Yrotation Xrotation
					JOINT LeftToe
					{
						OFFSET 17.299988 -0.000007 0.000010
						CHANNELS 3 Zrotation Yrotation Xrotation
						End Site
						{
							OFFSET 0.000000 0.000000 0.000000
						}
					}
				}
			}
		}
		JOINT Spine
		{
			OFFSET 6.901970 -2.603737 0.000000
			CHANNELS 3 Zrotation Yrotation Xrotation
			JOINT Spine1
			{
				OFFSET 12.588099 0.000007 0.000001
				CHANNELS 3 Zrotation Yrotation Xrotation
				JOINT Spine2
				{
					OFFSET 12.343201 0.000001 0.000000
					CHANNELS 3 Zrotation Yrotation Xrotation
					JOINT Neck
					{
						OFFSET 25.832897 -0.000008 -0.000001
						CHANNELS 3 Zrotation Yrotation Xrotation
						JOINT Head
						{
							OFFSET 11.766607 0.000021 0.000000
							CHANNELS 3 Zrotation Yrotation Xrotation
							End Site
							{
								OFFSET 0.000000 0.000000 0.000000
							}
						}
					}
					JOINT RightShoulder
					{
						OFFSET 19.745903 -1.480373 6.000104
						CHANNELS 3 Zrotation Yrotation Xrotation
						JOINT RightArm
						{
							OFFSET 11.284125 -0.000018 -0.000023
							CHANNELS 3 Zrotation Yrotation Xrotation
							JOINT RightForeArm
							{
								OFFSET 33.000050 0.000010 0.000034
								CHANNELS 3 Zrotation Yrotation Xrotation
								JOINT RightHand
								{
									OFFSET 25.200010 0.000001 -0.000001
									CHANNELS 3 Zrotation Yrotation Xrotation
									End Site
									{
										OFFSET 0.000000 0.000000 0.000000
									}
								}
							}
						}
					}
					JOINT LeftShoulder
					{
						OFFSET 19.746090 -1.480381 -6.000076
						CHANNELS 3 Zrotation Yrotation Xrotation
						JOINT LeftArm
						{
							OFFSET 11.284138 -0.000019 -0.000020
							CHANNELS 3 Zrotation Yrotation Xrotation
							JOINT LeftForeArm
							{
								OFFSET 33.000092 0.000024 0.000022
								CHANNELS 3 Zrotation Yrotation Xrotation
								JOINT LeftHand
								{
									OFFSET 25.199774 0.000133 0.000423
									CHANNELS 3 Zrotation Yrotation Xrotation
									End Site
									{
										OFFSET 0.000000 0.000000 0.000000
									}
								}
							}
						}
					}
				}
			}
		}
	}
}
MOTION
Frames: 5
Frame Time: 0.016667
225.629274 0.000000 468.130564 180.000000 43.855968 180.000000 1.112304 89.490356 1.775121 96.396388 3.717915 -178.335614 165.953366 -22.688908 147.038153 -33.878857 -3.376471 -35.855429 70.315123 23.558053 -7.090119 21.454562 0.003101 0.000016 -171.448758 3.895391 -158.930948 -17.603146 3.629445 11.923859 86.187144 -6.290676 11.394841 21.454551 -0.003094 -0.000002 8.478650 0.214391 -0.940200 6.940566 0.484662 -1.865887 6.622653 0.473251 -1.868775 -3.051016 0.342599 -7.214110 -4.978908 5.879967 -8.487243 140.144278 -70.158238 39.706487 -5.132428 52.778649 24.614780 -62.985306 -13.821586 2.164422 7.014338 -7.970761 33.347373 -179.074706 75.703381 2.342808 -21.300950 -55.999599 -20.669663 -83.299600 5.725769 -2.402021 7.628999 2.944395 -17.561098 
226.089143 0.000000 467.823782 180.000000 45.143745 180.000000 1.005705 89.662404 1.614548 96.413517 3.272980 -178.116969 165.976780 -21.996979 151.276135 -34.411262 -3.156248 -34.492625 68.564065 22.485111 -7.474899 21.454560 0.003104 0.000016 -171.947531 4.128953 -159.231201 -17.816607 3.527424 11.580869 86.145781 -6.119259 10.988128 21.454551 -0.003099 -0.000002 8.559830 0.211212 -1.033079 7.102512 0.485317 -2.051278 6.784647 0.472775 -2.054171 -3.492343 0.467883 -6.895239 -4.649592 5.685521 -8.055733 140.533386 -70.109203 39.313305 -3.999373 53.524173 24.582848 -62.598493 -13.914755 2.155776 7.166290 -8.255732 33.940993 -178.635028 75.445022 2.787996 -21.731689 -55.220993 -20.039405 -82.880627 5.962311 -2.403143 8.296520 2.844686 -17.777424 
226.491739 0.000000 467.552555 180.000000 46.409261 180.000000 0.897650 89.858307 1.394195 96.462429 2.667228 -178.023050 166.210140 -20.921491 156.339069 -35.088528 -3.088125 -32.694100 67.062778 21.038021 -7.999097 21.454558 0.003107 0.000016 -172.435407 4.615011 -159.640782 -18.097416 3.411005 11.237826 86.052726 -5.931764 10.649889 21.454553 -0.003099 -0.000002 8.650058 0.178513 -1.105097 7.283207 0.426118 -2.196781 6.965380 0.412692 -2.199317 -3.769961 0.600454 -6.589517 -4.475430 5.376336 -7.621342 140.638907 -70.060772 39.209433 -2.940773 54.353916 24.582753 -62.148034 -14.002170 2.144523 7.177619 -8.676131 34.349693 -178.097415 75.279793 3.335598 -22.334856 -54.519251 -19.319331 -82.343079 6.237600 -2.403848 8.974201 2.908495 -17.968003 
226.829605 0.000000 467.319009 180.000000 47.647622 180.000000 0.776480 90.074896 1.134310 96.504778 1.961368 -178.152371 166.627103 -19.755816 161.561573 -36.108411 -3.163503 -29.947568 66.077065 18.989069 -8.199508 21.454557 0.003108 0.000017 -172.950126 5.327596 -160.202748 -18.410553 3.343484 10.849065 85.915589 -5.707565 10.328978 21.454552 -0.003089 -0.000002 8.732086 0.124785 -1.131980 7.448186 0.322066 -2.253571 7.130354 0.308310 -2.255477 -3.765761 0.690347 -6.275041 -4.468396 5.044810 -7.202673 140.549154 -70.146346 39.294308 -2.153012 55.294599 24.729445 -61.540739 -14.123110 2.129674 6.924174 -9.030867 34.691239 -178.043968 75.338569 3.391471 -22.799565 -54.081870 -18.517792 -81.809236 6.511515 -2.404838 9.657162 3.139377 -18.347664 
227.103838 0.000000 467.120272 180.000000 48.853215 180.000000 0.660964 90.290421 0.857968 96.526366 1.261468 -178.492090 167.089964 -18.725408 166.675699 -37.502020 -3.542686 -26.695824 65.571509 16.779951 -7.747626 21.454557 0.003107 0.000019 -173.486245 6.142390 -160.894709 -18.721509 3.335032 10.404279 85.748742 -5.443548 10.009738 21.454551 -0.003085 -0.000002 8.798388 0.068616 -1.101101 7.581963 0.209131 -2.195316 7.264099 0.195740 -2.196537 -3.579914 0.771293 -5.973575 -4.392084 4.736959 -6.805364 140.177118 -70.308776 39.661062 -1.460778 56.315598 25.124052 -60.968815 -14.317198 2.121071 6.474101 -9.325144 35.260994 -178.272609 75.514977 3.160511 -22.973702 -53.820413 -17.732876 -81.362975 6.758862 -2.405903 10.225999 3.516690 -19.078508 
